<svg width="18" height="18" viewBox="0 0 18 18" fill="none" xmlns="http://www.w3.org/2000/svg">
<path d="M6.37488 14.2499H5.99988C2.99988 14.2499 1.49988 13.4999 1.49988 9.74994V5.99994C1.49988 2.99994 2.99988 1.49994 5.99988 1.49994H11.9999C14.9999 1.49994 16.4999 2.99994 16.4999 5.99994V9.74994C16.4999 12.7499 14.9999 14.2499 11.9999 14.2499H11.6249C11.3924 14.2499 11.1674 14.3624 11.0249 14.5499L9.89988 16.0499C9.40488 16.7099 8.59488 16.7099 8.09988 16.0499L6.97488 14.5499C6.85488 14.3849 6.57738 14.2499 6.37488 14.2499Z" stroke="#1A1C1E" stroke-width="1.5" stroke-miterlimit="10" stroke-linecap="round" stroke-linejoin="round"/>
<path d="M11.9975 8.25H12.0042" stroke="#FFA500" stroke-width="2" stroke-linecap="round" stroke-linejoin="round"/>
<path d="M8.99649 8.25H9.00323" stroke="#FFA500" stroke-width="2" stroke-linecap="round" stroke-linejoin="round"/>
<path d="M5.99588 8.25H6.00262" stroke="#FFA500" stroke-width="2" stroke-linecap="round" stroke-linejoin="round"/>
</svg>
