<svg width="32" height="29" viewBox="0 0 32 29" fill="none" xmlns="http://www.w3.org/2000/svg">
<path d="M31.8847 8.04633L30.0154 21.4116C29.6104 24.2155 28.0683 25.6954 25.5292 25.6954C25.3267 25.6954 25.1241 25.6798 24.9061 25.6642C24.9511 25.36 24.972 25.0527 24.9684 24.7452V11.2397C25.0474 10.6757 24.9941 10.1011 24.8128 9.56122C24.6315 9.02137 24.3271 8.5311 23.9236 8.12917C23.5202 7.72724 23.0288 7.42467 22.4883 7.24537C21.9477 7.06608 21.3729 7.01498 20.8092 7.09611H5.27869C5.27869 7.06496 5.29426 7.01823 5.29426 6.98707L5.66812 4.37009C5.71701 3.70339 5.89778 3.05303 6.19994 2.45673C6.5021 1.86043 6.91964 1.33005 7.42835 0.896353C7.98628 0.528737 8.61127 0.274837 9.26751 0.149204C9.92374 0.0235704 10.5983 0.0286736 11.2526 0.164221L27.7022 2.46966C28.3672 2.52295 29.0152 2.70729 29.6087 3.01206C30.2022 3.31684 30.7295 3.73602 31.1603 4.24547C31.5326 4.79676 31.7887 5.41801 31.9132 6.07143C32.0378 6.72485 32.0281 7.39678 31.8847 8.04633Z" fill="white"/>
<g opacity="0.4">
<path d="M0.0369948 24.7499V11.2475C-0.0431939 10.6834 0.00901454 10.1084 0.189489 9.56792C0.369962 9.02746 0.673748 8.53642 1.0768 8.13367C1.47986 7.73091 1.97112 7.4275 2.51172 7.24743C3.05231 7.06736 3.62739 7.01558 4.19146 7.0962H20.8093C21.3731 7.01645 21.9476 7.06887 22.4877 7.24929C23.0277 7.42972 23.5184 7.73322 23.921 8.13583C24.3236 8.53844 24.6271 9.02913 24.8076 9.56916C24.988 10.1092 25.0404 10.6838 24.9606 11.2475V24.7499C25.0409 25.3139 24.9889 25.8889 24.8087 26.4293C24.6285 26.9697 24.3251 27.4609 23.9224 27.8638C23.5198 28.2668 23.0289 28.5706 22.4886 28.7512C21.9483 28.9318 21.3734 28.9842 20.8093 28.9044H4.19146C3.6271 28.9851 3.05169 28.9333 2.51083 28.7531C1.96996 28.5728 1.4785 28.2691 1.07538 27.866C0.672253 27.4629 0.368543 26.9714 0.188309 26.4306C0.00807481 25.8897 -0.0437313 25.3143 0.0369948 24.7499Z" fill="white"/>
</g>
<path d="M16.3932 16.8316H13.6672V14.1056C13.6672 13.7957 13.5441 13.4985 13.325 13.2794C13.1059 13.0603 12.8087 12.9373 12.4989 12.9373C12.189 12.9373 11.8919 13.0603 11.6728 13.2794C11.4537 13.4985 11.3306 13.7957 11.3306 14.1056V16.8316H8.60458C8.29472 16.8316 7.99756 16.9547 7.77847 17.1738C7.55937 17.3929 7.43628 17.69 7.43628 17.9999C7.43628 18.3097 7.55937 18.6069 7.77847 18.826C7.99756 19.0451 8.29472 19.1682 8.60458 19.1682H11.3306V21.8942C11.3306 22.204 11.4537 22.5012 11.6728 22.7203C11.8919 22.9394 12.189 23.0625 12.4989 23.0625C12.8087 23.0625 13.1059 22.9394 13.325 22.7203C13.5441 22.5012 13.6672 22.204 13.6672 21.8942V19.1682H16.3932C16.7031 19.1682 17.0002 19.0451 17.2193 18.826C17.4384 18.6069 17.5615 18.3097 17.5615 17.9999C17.5615 17.69 17.4384 17.3929 17.2193 17.1738C17.0002 16.9547 16.7031 16.8316 16.3932 16.8316Z" fill="white"/>
</svg>
