<svg width="40" height="40" viewBox="0 0 40 40" fill="none" xmlns="http://www.w3.org/2000/svg">
<path d="M20.9385 4.44873C25.2927 4.44873 28.4186 6.83686 29.5146 10.9995C30.2268 13.6963 29.2336 18.4102 28.2432 21.979C28.2414 22.0243 28.2367 22.0701 28.2266 22.1157C28.0967 22.7029 28.0314 23.3024 28.0312 23.9038C28.0312 26.2075 29.0043 28.423 30.7021 29.9829C30.7918 30.0655 30.8606 30.1682 30.9023 30.2827C30.9441 30.3973 30.9579 30.5202 30.9424 30.6411C30.9269 30.7618 30.8827 30.877 30.8135 30.9771C30.7441 31.0772 30.6516 31.1602 30.5439 31.2173C29.1042 31.9805 27.48 32.3833 25.8477 32.3833C25.2753 32.3833 24.5647 32.1835 23.8604 31.9321C23.896 31.9893 23.9314 32.047 23.9678 32.105L24.5664 33.0571C24.5831 33.0818 24.5979 33.1073 24.6113 33.1333C24.629 33.1675 24.6422 33.2032 24.6543 33.2388C24.6621 33.2619 24.6673 33.2855 24.6729 33.3091C24.679 33.3354 24.6842 33.3616 24.6875 33.3882C24.6903 33.4107 24.6916 33.433 24.6924 33.4556C24.6932 33.4798 24.6939 33.5037 24.6924 33.5278C24.6907 33.5548 24.6861 33.5812 24.6816 33.6079C24.678 33.6296 24.6745 33.6511 24.6689 33.6724C24.6633 33.6943 24.656 33.7154 24.6484 33.7368C24.6385 33.7648 24.6275 33.7921 24.6143 33.8188C24.6069 33.8336 24.5982 33.8475 24.5898 33.8618C24.574 33.8891 24.5574 33.9156 24.5381 33.9409C24.5149 33.9713 24.4911 34.0016 24.4629 34.0288C24.4408 34.0501 24.4176 34.0705 24.3926 34.0894C23.3331 34.9507 22.0004 35.4253 20.6348 35.4253C17.3391 35.4253 14.6582 32.7454 14.6582 29.4517C14.6582 27.5556 15.5696 25.759 17.0996 24.6343C17.1018 24.6328 17.1048 24.6309 17.1074 24.6294C17.499 24.3163 17.989 24.025 18.5078 23.7163C19.5589 23.0922 20.8666 22.3148 20.9023 21.478C20.9016 18.5327 18.8857 18.0875 17.6836 18.0874C17.6563 18.0874 17.6291 18.0853 17.6025 18.0825C16.4372 18.5985 15.1935 18.8608 13.8975 18.8608C12.5151 18.8608 11.1866 18.5625 9.94922 17.9741C9.39918 17.7167 8.8661 17.3973 8.37109 17.0269C8.28533 16.9608 8.24642 16.9312 8.20703 16.897C7.79646 16.5251 7.57035 16.0152 7.57031 15.4849C7.57031 14.4442 8.41679 13.5972 9.45703 13.5972C9.64102 13.5972 9.81974 13.6241 9.98926 13.6753C10.0161 13.6835 10.0433 13.6924 10.0693 13.7036L10.0684 13.7075C10.0995 13.7142 10.1307 13.7237 10.1611 13.7349C10.4369 13.8342 10.7239 13.8996 11.0156 13.9282C12.1995 14.0584 13.2697 13.6606 14.085 12.8706C14.4375 12.5308 14.9465 12.4153 15.415 12.5737C17.1877 13.1602 18.3999 14.7686 18.4941 16.6206C20.5179 16.9031 22.4258 18.2929 22.4258 21.5112C22.3542 23.2039 20.6528 24.2137 19.2861 25.0259C18.8316 25.2959 18.4017 25.5527 18.0938 25.7915C18.0744 25.8086 18.0538 25.8255 18.0322 25.8403C16.8733 26.6772 16.1816 28.0271 16.1816 29.4517C16.1817 31.9057 18.1793 33.9018 20.6348 33.9019C21.4358 33.9019 22.2211 33.6814 22.9043 33.2749L22.6777 32.9146C22.1597 32.0897 21.6766 31.3207 21.333 30.7964C21.2459 30.6633 21.2024 30.5061 21.209 30.3472C21.2156 30.1882 21.2721 30.0351 21.3701 29.9097C21.5717 29.6531 21.916 29.554 22.2217 29.6597C22.4776 29.7489 22.7991 29.8796 23.1543 30.0239C24.0239 30.3765 25.215 30.8599 25.8477 30.8599C26.8868 30.8598 27.9219 30.667 28.8896 30.2974C27.3647 28.5314 26.5078 26.2559 26.5078 23.9038C26.5078 23.2801 26.5699 22.6556 26.6885 22.0425C26.6848 21.9631 26.6902 21.8819 26.7129 21.8013C28.0496 17.0479 28.5345 13.2521 28.042 11.3872C27.1221 7.89491 24.5993 5.97217 20.9385 5.97217C17.6046 5.97229 15.6505 8.68731 15.4434 11.3696C15.4106 11.789 15.0416 12.1018 14.626 12.0708C14.2069 12.0381 13.8926 11.6718 13.9248 11.2524C14.1796 7.95419 16.7243 4.44888 20.9385 4.44873ZM15.0459 14.0581C14.0562 14.9722 12.7738 15.4741 11.4219 15.4741C11.2297 15.4741 11.0409 15.4644 10.8555 15.4429C10.4534 15.4035 10.0473 15.3127 9.66016 15.1743C9.61454 15.1608 9.5696 15.145 9.52539 15.1274C9.50293 15.1234 9.47986 15.1205 9.45703 15.1206C9.2566 15.1206 9.09375 15.284 9.09375 15.4849C9.09378 15.6236 9.16943 15.7126 9.21484 15.7544C9.24267 15.7751 9.27038 15.7967 9.29785 15.8179C9.70393 16.1208 10.1406 16.3818 10.5996 16.5962C12.6009 17.5497 14.9713 17.5792 16.9756 16.6948C16.9137 15.5092 16.1582 14.4754 15.0459 14.0581ZM19.0146 8.91846C19.2291 8.70417 19.5766 8.70422 19.791 8.91846C20.0055 9.13295 20.0055 9.48135 19.791 9.6958C19.579 9.90692 18.8117 9.92008 18.79 9.92041C18.79 9.92041 18.8002 9.13295 19.0146 8.91846Z" fill="#FFA500"/>
<path d="M20.9385 4.44873V3.94873H20.9385L20.9385 4.44873ZM29.5146 10.9995L29.0311 11.1268L29.0312 11.1272L29.5146 10.9995ZM28.2432 21.979L27.7614 21.8453L27.7458 21.9016L27.7435 21.9599L28.2432 21.979ZM28.2266 22.1157L28.7148 22.2237L28.7148 22.2237L28.2266 22.1157ZM28.0312 23.9038L27.5312 23.9037V23.9038H28.0312ZM30.7021 29.9829L31.0407 29.615L31.0404 29.6147L30.7021 29.9829ZM30.9023 30.2827L31.3721 30.1115L31.3721 30.1115L30.9023 30.2827ZM30.9424 30.6411L31.4383 30.7049L31.4383 30.7049L30.9424 30.6411ZM30.8135 30.9771L31.2245 31.2617L31.2248 31.2614L30.8135 30.9771ZM30.5439 31.2173L30.7781 31.6591L30.7782 31.659L30.5439 31.2173ZM25.8477 32.3833V32.8833H25.8477L25.8477 32.3833ZM23.8604 31.9321L24.0284 31.4612L22.6768 30.9789L23.4361 32.1967L23.8604 31.9321ZM23.9678 32.105L23.5444 32.371L23.5445 32.3711L23.9678 32.105ZM24.5664 33.0571L24.1431 33.3233L24.1473 33.3299L24.1517 33.3364L24.5664 33.0571ZM24.6113 33.1333L24.167 33.3626L24.1672 33.363L24.6113 33.1333ZM24.6543 33.2388L25.128 33.0788L25.1278 33.0782L24.6543 33.2388ZM24.6729 33.3091L24.1859 33.4227L24.186 33.4232L24.6729 33.3091ZM24.6875 33.3882L25.1837 33.3268L25.1837 33.3267L24.6875 33.3882ZM24.6924 33.4556L25.1921 33.4386L25.1921 33.4385L24.6924 33.4556ZM24.6924 33.5278L24.1933 33.4972L24.1933 33.4975L24.6924 33.5278ZM24.6816 33.6079L25.1747 33.6912L25.1747 33.6908L24.6816 33.6079ZM24.6689 33.6724L24.1849 33.5469L24.1848 33.5473L24.6689 33.6724ZM24.6484 33.7368L25.1194 33.9046L25.1195 33.9045L24.6484 33.7368ZM24.6143 33.8188L25.0624 34.0406L25.0624 34.0405L24.6143 33.8188ZM24.5898 33.8618L24.1572 33.6111L24.1571 33.6114L24.5898 33.8618ZM24.5381 33.9409L24.9358 34.2439L24.9361 34.2436L24.5381 33.9409ZM24.4629 34.0288L24.8098 34.3889L24.8099 34.3887L24.4629 34.0288ZM24.3926 34.0894L24.0922 33.6896L24.0846 33.6954L24.0772 33.7014L24.3926 34.0894ZM20.6348 35.4253L20.6348 35.9253H20.6348V35.4253ZM14.6582 29.4517H14.1582V29.4517L14.6582 29.4517ZM17.0996 24.6343L16.8223 24.2183L16.8127 24.2246L16.8035 24.2314L17.0996 24.6343ZM17.1074 24.6294L17.3541 25.0643L17.3886 25.0447L17.4197 25.0199L17.1074 24.6294ZM18.5078 23.7163L18.2525 23.2864L18.2522 23.2866L18.5078 23.7163ZM20.9023 21.478L21.4019 21.4993L21.4023 21.4886L21.4023 21.4779L20.9023 21.478ZM17.6836 18.0874L17.6836 17.5874H17.6836V18.0874ZM17.6025 18.0825L17.6549 17.5853L17.5221 17.5713L17.4001 17.6253L17.6025 18.0825ZM13.8975 18.8608L13.8975 19.3608H13.8975V18.8608ZM9.94922 17.9741L10.1639 17.5226L10.1611 17.5212L9.94922 17.9741ZM8.37109 17.0269L8.06582 17.4229L8.07151 17.4272L8.37109 17.0269ZM8.20703 16.897L7.8713 17.2676L7.87924 17.2745L8.20703 16.897ZM7.57031 15.4849H7.07031V15.4849L7.57031 15.4849ZM9.45703 13.5972V13.0972H9.45701L9.45703 13.5972ZM9.98926 13.6753L10.135 13.197L10.1339 13.1967L9.98926 13.6753ZM10.0693 13.7036L10.5544 13.8249L10.6576 13.4121L10.2666 13.2442L10.0693 13.7036ZM10.0684 13.7075L9.58329 13.5863L9.45781 14.0882L9.96372 14.1964L10.0684 13.7075ZM10.1611 13.7349L9.98907 14.2043L9.99169 14.2053L10.1611 13.7349ZM11.0156 13.9282L11.0703 13.4312L11.0644 13.4306L11.0156 13.9282ZM14.085 12.8706L13.738 12.5106L13.737 12.5115L14.085 12.8706ZM15.415 12.5737L15.2549 13.0474L15.258 13.0484L15.415 12.5737ZM18.4941 16.6206L17.9948 16.646L18.0158 17.0587L18.425 17.1158L18.4941 16.6206ZM22.4258 21.5112L22.9253 21.5324L22.9258 21.5218V21.5112H22.4258ZM19.2861 25.0259L19.5415 25.4557L19.5416 25.4557L19.2861 25.0259ZM18.0938 25.7915L17.7874 25.3964L17.7746 25.4063L17.7624 25.417L18.0938 25.7915ZM18.0322 25.8403L17.7481 25.4288L17.7395 25.435L18.0322 25.8403ZM16.1816 29.4517H15.6816V29.4517L16.1816 29.4517ZM20.6348 33.9019L20.6348 34.4019H20.6348V33.9019ZM22.9043 33.2749L23.1599 33.7046L23.6003 33.4426L23.3276 33.0088L22.9043 33.2749ZM22.6777 32.9146L22.2543 33.1805L22.2544 33.1807L22.6777 32.9146ZM21.333 30.7964L20.9147 31.0703L20.9148 31.0704L21.333 30.7964ZM21.209 30.3472L20.7094 30.3264L20.7094 30.3264L21.209 30.3472ZM21.3701 29.9097L20.977 29.6008L20.9761 29.6019L21.3701 29.9097ZM22.2217 29.6597L22.3864 29.1876L22.385 29.1871L22.2217 29.6597ZM23.1543 30.0239L22.9661 30.4872L22.9664 30.4873L23.1543 30.0239ZM25.8477 30.8599V31.3599H25.8477L25.8477 30.8599ZM28.8896 30.2974L29.0681 30.7644L29.734 30.5101L29.2681 29.9706L28.8896 30.2974ZM26.5078 23.9038L26.0078 23.9038V23.9038H26.5078ZM26.6885 22.0425L27.1794 22.1374L27.1907 22.0789L27.1879 22.0194L26.6885 22.0425ZM26.7129 21.8013L27.1942 21.9369L27.1942 21.9366L26.7129 21.8013ZM28.042 11.3872L27.5585 11.5146L27.5586 11.5149L28.042 11.3872ZM20.9385 5.97217V5.47217H20.9385L20.9385 5.97217ZM15.4434 11.3696L15.9418 11.4085L15.9419 11.4081L15.4434 11.3696ZM14.626 12.0708L14.587 12.5693L14.5888 12.5694L14.626 12.0708ZM13.9248 11.2524L13.4263 11.2139L13.4263 11.2142L13.9248 11.2524ZM15.0459 14.0581L15.2215 13.59L14.933 13.4817L14.7066 13.6908L15.0459 14.0581ZM11.4219 15.4741L11.4219 15.9741H11.4219V15.4741ZM10.8555 15.4429L10.9132 14.9461L10.9042 14.9453L10.8555 15.4429ZM9.66016 15.1743L9.82841 14.7035L9.81543 14.6988L9.80222 14.6949L9.66016 15.1743ZM9.52539 15.1274L9.71014 14.6628L9.66365 14.6443L9.61441 14.6354L9.52539 15.1274ZM9.45703 15.1206L9.45714 15.6206L9.45897 15.6206L9.45703 15.1206ZM9.09375 15.4849H8.59375V15.485L9.09375 15.4849ZM9.21484 15.7544L8.87629 16.1223L8.89527 16.1398L8.91594 16.1552L9.21484 15.7544ZM9.29785 15.8179L8.99218 16.2136L8.99887 16.2186L9.29785 15.8179ZM10.5996 16.5962L10.8147 16.1448L10.8112 16.1432L10.5996 16.5962ZM16.9756 16.6948L17.1774 17.1523L17.4929 17.0131L17.4749 16.6688L16.9756 16.6948ZM19.0146 8.91846L18.6612 8.56479L18.6611 8.5649L19.0146 8.91846ZM19.791 8.91846L20.1446 8.5649L20.1444 8.56472L19.791 8.91846ZM19.791 9.6958L20.1439 10.0501L20.1445 10.0494L19.791 9.6958ZM18.79 9.92041L18.2901 9.91399L18.2835 10.4282L18.7977 10.4204L18.79 9.92041ZM20.9385 4.44873V4.94873C23.0224 4.94873 24.7815 5.51903 26.1449 6.56046C27.5078 7.60161 28.5075 9.13824 29.0311 11.1268L29.5146 10.9995L29.9982 10.8722C29.4257 8.69812 28.3144 6.95936 26.7519 5.76579C25.1897 4.57249 23.2088 3.94873 20.9385 3.94873V4.44873ZM29.5146 10.9995L29.0312 11.1272C29.3604 12.3738 29.3036 14.1431 29.0225 16.0908C28.7436 18.0234 28.2536 20.0715 27.7614 21.8453L28.2432 21.979L28.725 22.1127C29.2231 20.3176 29.7249 18.2245 30.0122 16.2337C30.2973 14.2581 30.381 12.322 29.9981 10.8719L29.5146 10.9995ZM28.2432 21.979L27.7435 21.9599C27.7426 21.9833 27.7405 21.9983 27.7384 22.0077L28.2266 22.1157L28.7148 22.2237C28.7329 22.1419 28.7402 22.0652 28.7428 21.9981L28.2432 21.979ZM28.2266 22.1157L27.7384 22.0077C27.6006 22.6305 27.5314 23.2662 27.5312 23.9037L28.0312 23.9038L28.5312 23.9039C28.5314 23.3387 28.5927 22.7753 28.7148 22.2237L28.2266 22.1157ZM28.0312 23.9038H27.5312C27.5312 26.3475 28.563 28.6966 30.3639 30.3511L30.7021 29.9829L31.0404 29.6147C29.4456 28.1495 28.5312 26.0675 28.5312 23.9038H28.0312ZM30.7021 29.9829L30.3636 30.3508C30.3949 30.3796 30.4184 30.4151 30.4326 30.4539L30.9023 30.2827L31.3721 30.1115C31.3028 29.9213 31.1888 29.7513 31.0407 29.615L30.7021 29.9829ZM30.9023 30.2827L30.4326 30.4539C30.4471 30.4938 30.4518 30.5362 30.4465 30.5773L30.9424 30.6411L31.4383 30.7049C31.4641 30.5042 31.4411 30.3007 31.3721 30.1115L30.9023 30.2827ZM30.9424 30.6411L30.4465 30.5773C30.4411 30.6188 30.4259 30.6584 30.4022 30.6927L30.8135 30.9771L31.2248 31.2614C31.3394 31.0956 31.4126 30.9047 31.4383 30.7049L30.9424 30.6411ZM30.8135 30.9771L30.4024 30.6924C30.3776 30.7282 30.3452 30.7567 30.3097 30.7755L30.5439 31.2173L30.7782 31.659C30.958 31.5637 31.1106 31.4262 31.2245 31.2617L30.8135 30.9771ZM30.5439 31.2173L30.3098 30.7755C28.9424 31.5003 27.3987 31.8833 25.8477 31.8833L25.8477 32.3833L25.8477 32.8833C27.5614 32.8833 29.266 32.4606 30.7781 31.6591L30.5439 31.2173ZM25.8477 32.3833V31.8833C25.3684 31.8833 24.7283 31.711 24.0284 31.4612L23.8604 31.9321L23.6923 32.403C24.4011 32.656 25.1822 32.8833 25.8477 32.8833V32.3833ZM23.8604 31.9321L23.4361 32.1967C23.468 32.248 23.5083 32.3136 23.5444 32.371L23.9678 32.105L24.3911 31.839C24.3544 31.7805 24.324 31.7307 24.2846 31.6676L23.8604 31.9321ZM23.9678 32.105L23.5445 32.3711L24.1431 33.3233L24.5664 33.0571L24.9897 32.791L24.3911 31.8389L23.9678 32.105ZM24.5664 33.0571L24.1517 33.3364C24.1565 33.3435 24.1616 33.3521 24.167 33.3626L24.6113 33.1333L25.0556 32.904C25.0343 32.8626 25.0097 32.8202 24.9811 32.7778L24.5664 33.0571ZM24.6113 33.1333L24.1672 33.363C24.1669 33.3624 24.1679 33.3643 24.1704 33.3704C24.1729 33.3767 24.1761 33.3855 24.1808 33.3993L24.6543 33.2388L25.1278 33.0782C25.1135 33.0359 25.0907 32.9718 25.0554 32.9036L24.6113 33.1333ZM24.6543 33.2388L24.1806 33.3987C24.179 33.3939 24.1787 33.3923 24.1798 33.3966C24.1803 33.3987 24.181 33.4015 24.182 33.406C24.1826 33.4082 24.1831 33.4106 24.1838 33.4135C24.1844 33.4161 24.1852 33.4195 24.1859 33.4227L24.6729 33.3091L25.1598 33.1955C25.1564 33.181 25.1453 33.1301 25.128 33.0788L24.6543 33.2388ZM24.6729 33.3091L24.186 33.4232C24.1897 33.4389 24.1909 33.4464 24.1913 33.4497L24.6875 33.3882L25.1837 33.3267C25.1775 33.2767 25.1683 33.232 25.1597 33.195L24.6729 33.3091ZM24.6875 33.3882L24.1913 33.4495C24.1916 33.4517 24.1922 33.4579 24.1927 33.4726L24.6924 33.4556L25.1921 33.4385C25.1911 33.4081 25.189 33.3696 25.1837 33.3268L24.6875 33.3882ZM24.6924 33.4556L24.1927 33.4725C24.1931 33.4842 24.1932 33.4904 24.1933 33.4952C24.1933 33.4994 24.1932 33.4996 24.1933 33.4972L24.6924 33.5278L25.1914 33.5585C25.1946 33.5078 25.1929 33.462 25.1921 33.4386L24.6924 33.4556ZM24.6924 33.5278L24.1933 33.4975C24.1936 33.4929 24.1939 33.4917 24.1932 33.4966C24.1929 33.499 24.1924 33.5022 24.1916 33.5071C24.1907 33.5124 24.1899 33.5173 24.1886 33.525L24.6816 33.6079L25.1747 33.6908C25.1779 33.6717 25.1879 33.617 25.1915 33.5581L24.6924 33.5278ZM24.6816 33.6079L24.1886 33.5246C24.1876 33.5309 24.1869 33.5349 24.1862 33.5391C24.1855 33.5431 24.185 33.5457 24.1847 33.5476C24.1839 33.5515 24.184 33.5506 24.1849 33.5469L24.6689 33.6724L25.153 33.7978C25.165 33.7514 25.172 33.7069 25.1747 33.6912L24.6816 33.6079ZM24.6689 33.6724L24.1848 33.5473C24.1851 33.5461 24.185 33.5469 24.1838 33.5506C24.1825 33.5546 24.1806 33.56 24.1774 33.5692L24.6484 33.7368L25.1195 33.9045C25.1278 33.881 25.1415 33.8422 25.1531 33.7974L24.6689 33.6724ZM24.6484 33.7368L24.1774 33.569C24.1718 33.5847 24.1682 33.5929 24.1661 33.5972L24.6143 33.8188L25.0624 34.0405C25.0868 33.9913 25.1051 33.9449 25.1194 33.9046L24.6484 33.7368ZM24.6143 33.8188L24.1661 33.5971C24.1699 33.5894 24.1725 33.5852 24.1707 33.5882C24.1698 33.5898 24.1688 33.5915 24.1663 33.5957C24.1642 33.5993 24.1608 33.6049 24.1572 33.6111L24.5898 33.8618L25.0225 34.1125C25.0307 34.0982 25.0197 34.1175 25.0341 34.0928C25.0406 34.0816 25.0513 34.0631 25.0624 34.0406L24.6143 33.8188ZM24.5898 33.8618L24.1571 33.6114C24.1473 33.6283 24.1423 33.6354 24.1401 33.6382L24.5381 33.9409L24.9361 34.2436C24.9725 34.1957 25.0008 34.15 25.0226 34.1123L24.5898 33.8618ZM24.5381 33.9409L24.1403 33.6379C24.1298 33.6517 24.1238 33.6594 24.1191 33.6649C24.1148 33.6701 24.114 33.6707 24.1158 33.6689L24.4629 34.0288L24.8099 34.3887C24.8681 34.3327 24.9117 34.2756 24.9358 34.2439L24.5381 33.9409ZM24.4629 34.0288L24.116 33.6687C24.1043 33.68 24.0968 33.6862 24.0922 33.6896L24.3926 34.0894L24.6929 34.4891C24.7384 34.4549 24.7773 34.4202 24.8098 34.3889L24.4629 34.0288ZM24.3926 34.0894L24.0772 33.7014C23.1066 34.4905 21.8853 34.9253 20.6348 34.9253V35.4253V35.9253C22.1156 35.9253 23.5596 35.411 24.708 34.4773L24.3926 34.0894ZM20.6348 35.4253L20.6348 34.9253C17.615 34.9253 15.1582 32.4691 15.1582 29.4517L14.6582 29.4517L14.1582 29.4517C14.1582 33.0218 17.0632 35.9253 20.6348 35.9253L20.6348 35.4253ZM14.6582 29.4517H15.1582C15.1582 27.7152 15.9935 26.068 17.3958 25.0371L17.0996 24.6343L16.8035 24.2314C15.1458 25.45 14.1582 27.396 14.1582 29.4517H14.6582ZM17.0996 24.6343L17.377 25.0503C17.3754 25.0513 17.3731 25.0529 17.37 25.0548C17.3673 25.0565 17.3617 25.06 17.3541 25.0643L17.1074 24.6294L16.8608 24.1945C16.8425 24.2048 16.8278 24.2146 16.8223 24.2183L17.0996 24.6343ZM17.1074 24.6294L17.4197 25.0199C17.7789 24.7327 18.2363 24.4597 18.7635 24.146L18.5078 23.7163L18.2522 23.2866C17.7417 23.5903 17.2192 23.8999 16.7952 24.2389L17.1074 24.6294ZM18.5078 23.7163L18.7631 24.1462C19.281 23.8387 19.9047 23.4694 20.4016 23.0646C20.6515 22.8611 20.8875 22.6344 21.0669 22.3849C21.2462 22.1355 21.3875 21.8373 21.4019 21.4993L20.9023 21.478L20.4028 21.4567C20.3994 21.5372 20.3638 21.6499 20.255 21.8011C20.1463 21.9523 19.983 22.1158 19.7701 22.2893C19.3414 22.6384 18.7857 22.9698 18.2525 23.2864L18.5078 23.7163ZM20.9023 21.478L21.4023 21.4779C21.4019 19.8783 20.8458 18.8662 20.039 18.275C19.2611 17.7049 18.3317 17.5875 17.6836 17.5874L17.6836 18.0874L17.6836 18.5874C18.2376 18.5874 18.9172 18.6927 19.4479 19.0816C19.9498 19.4493 20.402 20.1325 20.4023 21.4782L20.9023 21.478ZM17.6836 18.0874V17.5874C17.6808 17.5874 17.6728 17.5872 17.6549 17.5853L17.6025 18.0825L17.5502 18.5798C17.5854 18.5835 17.6318 18.5874 17.6836 18.5874V18.0874ZM17.6025 18.0825L17.4001 17.6253C16.2992 18.1128 15.1246 18.3608 13.8975 18.3608V18.8608V19.3608C15.2624 19.3608 16.5751 19.0843 17.805 18.5397L17.6025 18.0825ZM13.8975 18.8608L13.8975 18.3608C12.5886 18.3608 11.3336 18.0787 10.1639 17.5226L9.94922 17.9741L9.7345 18.4257C11.0396 19.0462 12.4415 19.3608 13.8975 19.3608L13.8975 18.8608ZM9.94922 17.9741L10.1611 17.5212C9.64225 17.2785 9.13852 16.9767 8.67067 16.6265L8.37109 17.0269L8.07151 17.4272C8.59368 17.8179 9.15611 18.155 9.73731 18.427L9.94922 17.9741ZM8.37109 17.0269L8.67634 16.6308C8.58417 16.5598 8.56027 16.5415 8.53482 16.5194L8.20703 16.897L7.87924 17.2745C7.93256 17.3208 7.98649 17.3617 8.06585 17.4229L8.37109 17.0269ZM8.20703 16.897L8.54269 16.5264C8.2343 16.2471 8.07034 15.8707 8.07031 15.4848L7.57031 15.4849L7.07031 15.4849C7.07036 16.1597 7.35862 16.8031 7.87137 17.2676L8.20703 16.897ZM7.57031 15.4849H8.07031C8.07031 14.7201 8.69319 14.0972 9.45705 14.0972L9.45703 13.5972L9.45701 13.0972C8.1404 13.0972 7.07031 14.1683 7.07031 15.4849H7.57031ZM9.45703 13.5972V14.0972C9.59207 14.0972 9.72206 14.1169 9.84462 14.1539L9.98926 13.6753L10.1339 13.1967C9.91743 13.1313 9.68997 13.0972 9.45703 13.0972V13.5972ZM9.98926 13.6753L9.84354 14.1536C9.85351 14.1566 9.86035 14.1588 9.86546 14.1606C9.8705 14.1624 9.87237 14.1632 9.87204 14.163L10.0693 13.7036L10.2666 13.2442C10.2153 13.2221 10.1674 13.2069 10.135 13.197L9.98926 13.6753ZM10.0693 13.7036L9.58426 13.5823L9.58329 13.5863L10.0684 13.7075L10.5534 13.8288L10.5544 13.8249L10.0693 13.7036ZM10.0684 13.7075L9.96372 14.1964C9.96703 14.1972 9.97534 14.1993 9.98908 14.2043L10.1611 13.7349L10.3332 13.2654C10.2861 13.2482 10.232 13.2312 10.173 13.2186L10.0684 13.7075ZM10.1611 13.7349L9.99169 14.2053C10.3056 14.3184 10.6331 14.3931 10.9668 14.4258L11.0156 13.9282L11.0644 13.4306C10.8147 13.4061 10.5682 13.35 10.3306 13.2645L10.1611 13.7349ZM11.0156 13.9282L10.961 14.4252C12.2987 14.5723 13.515 14.1192 14.4329 13.2297L14.085 12.8706L13.737 12.5115C13.0244 13.202 12.1003 13.5445 11.0703 13.4312L11.0156 13.9282ZM14.085 12.8706L14.4319 13.2306C14.65 13.0204 14.9635 12.9489 15.2549 13.0474L15.415 12.5737L15.5752 12.1001C14.9296 11.8818 14.225 12.0412 13.738 12.5106L14.085 12.8706ZM15.415 12.5737L15.258 13.0484C16.8333 13.5696 17.911 14.9984 17.9948 16.646L18.4941 16.6206L18.9935 16.5952C18.8889 14.5387 17.5421 12.7508 15.5721 12.099L15.415 12.5737ZM18.4941 16.6206L18.425 17.1158C19.3499 17.2449 20.2177 17.6225 20.8527 18.3055C21.4824 18.9827 21.9258 20.0058 21.9258 21.5112H22.4258H22.9258C22.9258 19.7984 22.4152 18.5174 21.585 17.6245C20.7601 16.7373 19.6621 16.2788 18.5633 16.1254L18.4941 16.6206ZM22.4258 21.5112L21.9262 21.4901C21.898 22.1569 21.5521 22.7176 21.0002 23.2334C20.4416 23.7555 19.7235 24.1843 19.0307 24.5961L19.2861 25.0259L19.5416 25.4557C20.2155 25.0552 21.0314 24.573 21.683 23.964C22.3414 23.3487 22.8819 22.5583 22.9253 21.5324L22.4258 21.5112ZM19.2861 25.0259L19.0307 24.596C18.5848 24.861 18.125 25.1346 17.7874 25.3964L18.0938 25.7915L18.4001 26.1866C18.6785 25.9708 19.0785 25.7308 19.5415 25.4557L19.2861 25.0259ZM18.0938 25.7915L17.7624 25.417C17.7578 25.4211 17.7543 25.4241 17.7516 25.4262C17.749 25.4283 17.7478 25.4291 17.7482 25.4289L18.0322 25.8403L18.3163 26.2518C18.3594 26.2221 18.3962 26.1915 18.4251 26.166L18.0938 25.7915ZM18.0322 25.8403L17.7395 25.435C16.4509 26.3654 15.6816 27.8659 15.6816 29.4517H16.1816H16.6816C16.6816 28.1883 17.2957 26.9889 18.3249 26.2457L18.0322 25.8403ZM16.1816 29.4517L15.6816 29.4517C15.6817 32.1821 17.9035 34.4018 20.6348 34.4019L20.6348 33.9019L20.6348 33.4019C18.4551 33.4018 16.6817 31.6292 16.6816 29.4517L16.1816 29.4517ZM20.6348 33.9019V34.4019C21.5273 34.4019 22.4007 34.1563 23.1599 33.7046L22.9043 33.2749L22.6486 32.8452C22.0414 33.2065 21.3442 33.4019 20.6348 33.4019V33.9019ZM22.9043 33.2749L23.3276 33.0088L23.101 32.6484L22.6777 32.9146L22.2544 33.1807L22.481 33.541L22.9043 33.2749ZM22.6777 32.9146L23.1012 32.6486C22.5843 31.8256 22.0981 31.0517 21.7512 30.5223L21.333 30.7964L20.9148 31.0704C21.2551 31.5898 21.7352 32.3539 22.2543 33.1805L22.6777 32.9146ZM21.333 30.7964L21.7513 30.5225C21.7212 30.4765 21.7063 30.4223 21.7086 30.3679L21.209 30.3472L20.7094 30.3264C20.6985 30.5899 20.7705 30.8501 20.9147 31.0703L21.333 30.7964ZM21.209 30.3472L21.7086 30.368C21.7108 30.3138 21.7301 30.261 21.7642 30.2175L21.3701 29.9097L20.9761 29.6019C20.8142 29.8092 20.7204 30.0625 20.7094 30.3264L21.209 30.3472ZM21.3701 29.9097L21.7633 30.2186C21.8322 30.1309 21.9525 30.0957 22.0584 30.1322L22.2217 29.6597L22.385 29.1871C21.8794 29.0124 21.3112 29.1753 20.977 29.6008L21.3701 29.9097ZM22.2217 29.6597L22.057 30.1318C22.2983 30.2159 22.6065 30.3411 22.9661 30.4872L23.1543 30.0239L23.3425 29.5607C22.9917 29.4182 22.6568 29.2819 22.3864 29.1876L22.2217 29.6597ZM23.1543 30.0239L22.9664 30.4873C23.3986 30.6625 23.9274 30.8772 24.429 31.0476C24.9128 31.2119 25.4397 31.3599 25.8477 31.3599V30.8599V30.3599C25.623 30.3599 25.2379 30.2662 24.7506 30.1007C24.2811 29.9412 23.7795 29.7379 23.3422 29.5606L23.1543 30.0239ZM25.8477 30.8599L25.8477 31.3599C26.9483 31.3598 28.0438 31.1557 29.0681 30.7644L28.8896 30.2974L28.7112 29.8303C27.8 30.1784 26.8253 30.3598 25.8476 30.3599L25.8477 30.8599ZM28.8896 30.2974L29.2681 29.9706C27.8209 28.2947 27.0078 26.1349 27.0078 23.9038H26.5078H26.0078C26.0078 26.3769 26.9085 28.7682 28.5112 30.6241L28.8896 30.2974ZM26.5078 23.9038L27.0078 23.9038C27.0078 23.3132 27.0666 22.7205 27.1794 22.1374L26.6885 22.0425L26.1976 21.9475C26.0732 22.5907 26.0078 23.247 26.0078 23.9038L26.5078 23.9038ZM26.6885 22.0425L27.1879 22.0194C27.186 21.9776 27.1897 21.9526 27.1942 21.9369L26.7129 21.8013L26.2316 21.6657C26.1906 21.8113 26.1836 21.9486 26.189 22.0656L26.6885 22.0425ZM26.7129 21.8013L27.1942 21.9366C27.8672 19.5436 28.3287 17.3815 28.5594 15.5744C28.7881 13.7821 28.7971 12.2882 28.5254 11.2595L28.042 11.3872L27.5586 11.5149C27.7794 12.3511 27.7921 13.6875 27.5674 15.4478C27.3446 17.1932 26.8953 19.3056 26.2316 21.6659L26.7129 21.8013ZM28.042 11.3872L28.5255 11.2599C28.0421 9.42458 27.1272 7.96793 25.8212 6.97243C24.5158 5.97734 22.8578 5.47217 20.9385 5.47217V5.97217V6.47217C22.68 6.47217 24.1139 6.92837 25.215 7.76772C26.3156 8.60668 27.122 9.85754 27.5585 11.5146L28.042 11.3872ZM20.9385 5.97217L20.9385 5.47217C17.273 5.47231 15.1662 8.46499 14.9448 11.3311L15.4434 11.3696L15.9419 11.4081C16.1348 8.90963 17.9362 6.47228 20.9385 6.47217L20.9385 5.97217ZM15.4434 11.3696L14.9449 11.3307C14.9337 11.4735 14.806 11.5828 14.6631 11.5722L14.626 12.0708L14.5888 12.5694C15.2772 12.6207 15.8875 12.1045 15.9418 11.4085L15.4434 11.3696ZM14.626 12.0708L14.6649 11.5723C14.5204 11.561 14.4123 11.4345 14.4233 11.2907L13.9248 11.2524L13.4263 11.2142C13.3729 11.9092 13.8935 12.5151 14.587 12.5693L14.626 12.0708ZM13.9248 11.2524L14.4233 11.2909C14.6635 8.18124 17.0519 4.94887 20.9385 4.94873L20.9385 4.44873L20.9385 3.94873C16.3967 3.94889 13.6956 7.72714 13.4263 11.2139L13.9248 11.2524ZM15.0459 14.0581L14.7066 13.6908C13.8094 14.5195 12.6482 14.9741 11.4219 14.9741V15.4741V15.9741C12.8993 15.9741 14.3029 15.425 15.3851 14.4254L15.0459 14.0581ZM11.4219 15.4741L11.4219 14.9741C11.2465 14.9741 11.0771 14.9652 10.9131 14.9462L10.8555 15.4429L10.7978 15.9395C11.0047 15.9636 11.213 15.9741 11.4219 15.9741L11.4219 15.4741ZM10.8555 15.4429L10.9042 14.9453C10.5431 14.9099 10.1772 14.8281 9.82841 14.7035L9.66016 15.1743L9.4919 15.6452C9.91749 15.7972 10.3637 15.8971 10.8067 15.9405L10.8555 15.4429ZM9.66016 15.1743L9.80222 14.6949C9.77241 14.6861 9.74173 14.6754 9.71014 14.6628L9.52539 15.1274L9.34064 15.5921C9.39746 15.6147 9.45668 15.6355 9.51809 15.6537L9.66016 15.1743ZM9.52539 15.1274L9.61441 14.6354C9.57503 14.6283 9.51934 14.6204 9.45509 14.6206L9.45703 15.1206L9.45897 15.6206C9.44905 15.6206 9.44201 15.62 9.43862 15.6197C9.43523 15.6193 9.43421 15.6191 9.43637 15.6195L9.52539 15.1274ZM9.45703 15.1206L9.45693 14.6206C8.97914 14.6207 8.59375 15.0092 8.59375 15.4849H9.09375H9.59375C9.59375 15.5589 9.53406 15.6206 9.45714 15.6206L9.45703 15.1206ZM9.09375 15.4849L8.59375 15.485C8.59383 15.8212 8.78 16.0337 8.87629 16.1223L9.21484 15.7544L9.55339 15.3864C9.55791 15.3906 9.56689 15.3995 9.57562 15.4155C9.58592 15.4342 9.59374 15.4593 9.59375 15.4847L9.09375 15.4849ZM9.21484 15.7544L8.91594 16.1552C8.93953 16.1728 8.96318 16.1912 8.99222 16.2136L9.29785 15.8179L9.60348 15.4222C9.57758 15.4022 9.5458 15.3775 9.51375 15.3536L9.21484 15.7544ZM9.29785 15.8179L8.99887 16.2186C9.43231 16.542 9.89826 16.8204 10.388 17.0492L10.5996 16.5962L10.8112 16.1432C10.3829 15.9431 9.97555 15.6996 9.59683 15.4171L9.29785 15.8179ZM10.5996 16.5962L10.3845 17.0476C12.5172 18.0637 15.0399 18.0955 17.1774 17.1523L16.9756 16.6948L16.7737 16.2374C14.9028 17.063 12.6846 17.0357 10.8147 16.1448L10.5996 16.5962ZM16.9756 16.6948L17.4749 16.6688C17.4027 15.2849 16.5204 14.0772 15.2215 13.59L15.0459 14.0581L14.8703 14.5262C15.7961 14.8735 16.4248 15.7336 16.4763 16.7209L16.9756 16.6948ZM19.0146 8.91846L19.3681 9.27213C19.3872 9.25301 19.4183 9.2529 19.4376 9.2722L19.791 8.91846L20.1444 8.56472C19.7348 8.15554 19.071 8.15532 18.6612 8.56479L19.0146 8.91846ZM19.791 8.91846L19.4375 9.27201C19.4567 9.29126 19.4567 9.32305 19.4375 9.34222L19.791 9.6958L20.1445 10.0494C20.5544 9.63965 20.5543 8.97464 20.1446 8.5649L19.791 8.91846ZM19.791 9.6958L19.4382 9.34154C19.4749 9.30499 19.4852 9.31657 19.4033 9.34139C19.3367 9.36155 19.2493 9.3786 19.1525 9.39161C19.058 9.40432 18.9665 9.41163 18.8966 9.41572C18.8619 9.41774 18.8334 9.41893 18.8135 9.41962C18.7935 9.4203 18.7823 9.42047 18.7824 9.42047L18.79 9.92041L18.7977 10.4204C18.8161 10.4201 19.036 10.4163 19.2858 10.3827C19.41 10.366 19.5555 10.3401 19.6932 10.2984C19.8154 10.2614 20.0012 10.1922 20.1439 10.0501L19.791 9.6958ZM18.79 9.92041C19.29 9.92683 19.29 9.9269 19.29 9.92696C19.29 9.92697 19.29 9.92703 19.29 9.92706C19.29 9.92712 19.29 9.92718 19.29 9.92722C19.29 9.9273 19.29 9.92734 19.29 9.92733C19.29 9.92731 19.29 9.9271 19.29 9.92673C19.29 9.92597 19.29 9.92451 19.2901 9.92238C19.2902 9.91812 19.2903 9.91121 19.2906 9.90199C19.2912 9.88351 19.2923 9.85594 19.2942 9.82183C19.298 9.7529 19.3051 9.66081 19.3177 9.5649C19.3305 9.46666 19.3476 9.37719 19.3681 9.30882C19.3934 9.22435 19.4054 9.23477 19.3682 9.27201L19.0146 8.91846L18.6611 8.5649C18.5166 8.70939 18.447 8.89867 18.41 9.02219C18.3683 9.16179 18.3426 9.3094 18.3262 9.43484C18.3094 9.5626 18.3005 9.68078 18.2957 9.7662C18.2933 9.80928 18.2919 9.8449 18.2911 9.87032C18.2907 9.88305 18.2905 9.89327 18.2903 9.90065C18.2902 9.90434 18.2902 9.90733 18.2901 9.90956C18.2901 9.91068 18.2901 9.91161 18.2901 9.91235C18.2901 9.91272 18.2901 9.91304 18.2901 9.91331C18.2901 9.91345 18.2901 9.91358 18.2901 9.91369C18.2901 9.91374 18.2901 9.91382 18.2901 9.91385C18.2901 9.91392 18.2901 9.91399 18.79 9.92041Z" fill="#FFA500"/>
</svg>
